<?xml version="1.0" encoding="UTF-8" standalone="no"?>
<svg
   width="41.545052"
   height="40.017582"
   viewBox="0 0 41.545052 40.017582"
   fill="none"
   version="1.1"
   id="svg1"
   sodipodi:docname="PinGift.svg"
   xml:space="preserve"
   inkscape:version="1.3.2 (091e20e, 2023-11-25, custom)"
   xmlns:inkscape="http://www.inkscape.org/namespaces/inkscape"
   xmlns:sodipodi="http://sodipodi.sourceforge.net/DTD/sodipodi-0.dtd"
   xmlns="http://www.w3.org/2000/svg"
   xmlns:svg="http://www.w3.org/2000/svg"><defs
     id="defs1"><filter
       inkscape:collect="always"
       style="color-interpolation-filters:sRGB"
       id="filter1"
       x="-0.053842559"
       y="-0.05612844"
       width="1.1076851"
       height="1.1122569"><feGaussianBlur
         inkscape:collect="always"
         stdDeviation="0.84142895"
         id="feGaussianBlur1" /></filter></defs><sodipodi:namedview
     id="namedview1"
     pagecolor="#ffffff"
     bordercolor="#000000"
     borderopacity="0.25"
     inkscape:showpageshadow="2"
     inkscape:pageopacity="0.0"
     inkscape:pagecheckerboard="0"
     inkscape:deskcolor="#d1d1d1"
     inkscape:zoom="8"
     inkscape:cx="18.0625"
     inkscape:cy="12.8125"
     inkscape:window-width="1920"
     inkscape:window-height="991"
     inkscape:window-x="-9"
     inkscape:window-y="-9"
     inkscape:window-maximized="1"
     inkscape:current-layer="svg1" /><path
     id="path1"
     style="opacity:0.425478;mix-blend-mode:normal;fill:#000000;fill-opacity:1;stroke-width:0.0625325;filter:url(#filter1)"
     d="m 15.082263,2.0195879 c -0.934274,0.0027 -1.08199,0.018675 -1.580078,0.1699219 C 12.52869,2.4851189 11.781969,2.9191018 11.04906,3.615291 10.228768,4.3944888 9.6624228,5.3825438 9.3810912,6.5274004 9.1946999,7.28739 9.1972437,8.4900038 9.3869506,9.2031816 9.6386375,10.149372 10.065942,10.901569 10.759998,11.625056 l 0.404296,0.423828 H 7.8849975 c -3.5549449,0 -3.6422368,0.006 -4.3203126,0.34961 -0.4151155,0.210355 -0.9889062,0.78418 -1.1992187,1.199218 -0.3346008,0.660387 -0.3489785,0.838898 -0.3457031,4.265626 0.00236,2.778011 0.01487,3.20828 0.109375,3.570312 0.2892718,1.10815 1.2102705,1.94402 2.3496094,2.132812 l 0.4121093,0.06836 v 5.853516 c 9.987e-4,6.354704 -0.00372,6.263634 0.3476563,6.957031 0.3232134,0.637834 1.0022449,1.208211 1.7011718,1.43164 0.3374334,0.107866 0.716878,0.11589 6.3769531,0.119141 l 6.019532,0.002 v -8.628906 -8.628906 h 1.4375 1.439453 v 8.628906 8.628906 h 5.996093 c 5.710662,0 6.016464,-0.0044 6.378907,-0.117187 0.71891,-0.223752 1.391867,-0.788687 1.724609,-1.445313 0.342461,-0.675819 0.342932,-0.667419 0.34375,-6.978515 v -5.822266 l 0.419922,-0.07031 c 1.126445,-0.186655 2.054596,-1.030631 2.341797,-2.130859 0.09474,-0.363032 0.107422,-0.788297 0.107422,-3.601562 0,-2.813265 -0.01265,-3.238531 -0.107422,-3.601563 -0.202159,-0.774438 -0.773426,-1.496352 -1.458985,-1.84375 -0.649741,-0.329268 -0.76229,-0.337891 -4.296874,-0.337891 h -3.279297 l 0.404297,-0.423828 C 31.272141,11.1197 31.492839,10.80702 31.828357,10.138728 32.137579,9.5228165 32.2054,9.274836 32.27367,8.5352129 32.33127,7.9110071 32.242239,6.9236383 32.062732,6.2129473 31.950175,5.7673132 31.559649,4.9208596 31.279529,4.5137285 30.546906,3.4488881 29.343313,2.5819523 28.058826,2.193416 27.546855,2.0385497 27.403706,2.0222906 26.465076,2.0195879 c -1.149237,-0.00332 -1.49832,0.061896 -2.291016,0.4277344 -0.620009,0.2861404 -1.164543,0.6688042 -1.636718,1.1523437 -0.443851,0.4545363 -1.200474,1.5546011 -1.521485,2.2109375 -0.113548,0.2321518 -0.222537,0.421875 -0.242187,0.421875 -0.01963,0 -0.12989,-0.1897232 -0.244141,-0.421875 C 20.11172,4.9616752 19.361144,3.9080054 18.810779,3.4004473 18.199097,2.8363448 17.325915,2.3515012 16.521716,2.1289629 16.203415,2.0408806 15.89026,2.0172167 15.082263,2.0195879 Z m 11.34961,2.890625 c 1.409551,0.00508 2.555607,0.9124238 2.876953,2.2753906 0.125212,0.5309823 0.118962,0.8396118 -0.03516,1.4960938 L 29.14281,9.2383379 28.697498,9.6211504 c -1.29824,1.1173596 -2.927863,1.7777036 -5.359375,2.1738276 -0.90349,0.147186 -1,0.152664 -1,0.05664 0,-0.189477 0.213385,-1.409181 0.349609,-1.9921874 0.301896,-1.2920065 0.708823,-2.3802685 1.197266,-3.203125 0.762029,-1.2837579 1.443532,-1.7501026 2.546875,-1.7460937 z m -11.425781,0.021484 c 1.103341,-0.00401 1.784846,0.4623371 2.546874,1.7460937 0.488443,0.8228557 0.89537,1.9111198 1.197266,3.203125 0.136224,0.5830064 0.34961,1.8027114 0.34961,1.9921874 0,0.09602 -0.09651,0.09055 -1,-0.05664 -2.43151,-0.396124 -4.061137,-1.05647 -5.359376,-2.1738286 L 12.295154,9.2598223 12.164295,8.7031816 C 12.010177,8.0467003 12.003927,7.7380697 12.129138,7.2070879 12.450484,5.8441225 13.596542,4.9367731 15.006092,4.9316969 Z M 4.9533568,14.986384 h 7.1914062 7.191407 v 2.845704 2.845703 H 12.144763 4.9533568 v -2.845703 z m 17.2597662,0 h 7.189453 7.191406 v 2.845704 2.845703 h -7.191406 -7.189453 v -2.845703 z" /><path
     id="path3"
     style="opacity:1;fill:#ffffff;fill-opacity:1;stroke-width:0.0625325"
     d="M 15.082263,0.01958795 C 14.147989,0.02229029 14.000273,0.03826254 13.502185,0.18950983 12.52869,0.48511896 11.781969,0.91910181 11.04906,1.615291 10.228768,2.3944888 9.6624228,3.3825438 9.3810912,4.5274004 9.1946999,5.28739 9.1972437,6.4900038 9.3869506,7.2031816 9.6386375,8.1493728 10.065942,8.9015693 10.759998,9.6250566 l 0.404296,0.4238274 H 7.8849975 c -3.5549449,0 -3.6422368,0.006 -4.3203126,0.34961 -0.4151155,0.210355 -0.9889062,0.78418 -1.1992187,1.199218 -0.3346008,0.660387 -0.3489785,0.838898 -0.3457031,4.265626 0.00236,2.778011 0.01487,3.20828 0.109375,3.570312 0.2892718,1.10815 1.2102705,1.94402 2.3496094,2.132812 l 0.4121093,0.06836 v 5.853516 c 9.987e-4,6.354704 -0.00372,6.263634 0.3476563,6.957031 0.3232134,0.637834 1.0022449,1.208211 1.7011718,1.43164 0.3374334,0.107866 0.716878,0.11589 6.3769531,0.119141 l 6.019532,0.002 v -8.628906 -8.628906 h 1.4375 1.439453 v 8.628906 8.628906 h 5.996093 c 5.710662,0 6.016464,-0.0044 6.378907,-0.117187 0.71891,-0.223752 1.391867,-0.788687 1.724609,-1.445313 0.342461,-0.675819 0.342932,-0.667419 0.34375,-6.978515 v -5.822266 l 0.419922,-0.07031 c 1.126445,-0.186655 2.054596,-1.030631 2.341797,-2.130859 0.09474,-0.363032 0.107422,-0.788297 0.107422,-3.601562 0,-2.813265 -0.01265,-3.238531 -0.107422,-3.601563 -0.202159,-0.774438 -0.773426,-1.496352 -1.458985,-1.84375 -0.649741,-0.329268 -0.76229,-0.337891 -4.296874,-0.337891 H 30.383045 L 30.787342,9.6250566 C 31.272141,9.1197001 31.492839,8.8070207 31.828357,8.1387285 32.137579,7.5228165 32.2054,7.274836 32.27367,6.5352129 32.33127,5.9110071 32.242239,4.9236383 32.062732,4.2129473 31.950175,3.7673132 31.559649,2.9208596 31.279529,2.5137285 30.546906,1.4488881 29.343313,0.58195239 28.058826,0.19341607 27.546855,0.03854974 27.403706,0.02229065 26.465076,0.01958795 25.315839,0.01626338 24.966756,0.08148406 24.17406,0.44732233 23.554051,0.73346274 23.009517,1.1161265 22.537342,1.599666 c -0.443851,0.4545363 -1.200474,1.5546011 -1.521485,2.2109375 -0.113548,0.2321518 -0.222537,0.421875 -0.242187,0.421875 -0.01963,0 -0.12989,-0.1897232 -0.244141,-0.421875 C 20.11172,2.9616752 19.361144,1.9080054 18.810779,1.4004473 18.199097,0.83634483 17.325915,0.35150126 16.521716,0.12896295 16.203415,0.0408806 15.89026,0.01721675 15.082263,0.01958795 Z m 11.34961,2.89062495 c 1.409551,0.00508 2.555607,0.9124238 2.876953,2.2753906 0.125212,0.5309823 0.118962,0.8396118 -0.03516,1.4960938 L 29.14281,7.2383379 28.697498,7.6211504 c -1.29824,1.1173598 -2.927863,1.7777037 -5.359375,2.1738281 -0.90349,0.1471859 -1,0.1526639 -1,0.056641 0,-0.1894766 0.213385,-1.4091804 0.349609,-1.9921876 0.301896,-1.2920065 0.708823,-2.3802685 1.197266,-3.203125 0.762029,-1.2837579 1.443532,-1.7501026 2.546875,-1.746094 z m -11.425781,0.021484 c 1.103341,-0.00401 1.784846,0.4623371 2.546874,1.7460937 0.488443,0.8228557 0.89537,1.9111198 1.197266,3.203125 0.136224,0.5830066 0.34961,1.8027111 0.34961,1.9921875 0,0.096023 -0.09651,0.090545 -1,-0.056641 C 15.668332,9.4203381 14.038705,8.7599927 12.740466,7.642634 L 12.295154,7.2598223 12.164295,6.7031816 C 12.010177,6.0467003 12.003927,5.7380697 12.129138,5.2070879 12.450484,3.8441225 13.596542,2.9367731 15.006092,2.9316969 Z M 4.9533568,12.986384 h 7.1914062 7.191407 v 2.845704 2.845703 H 12.144763 4.9533568 v -2.845703 z m 17.2597662,0 h 7.189453 7.191406 v 2.845704 2.845703 h -7.191406 -7.189453 v -2.845703 z" /><path
     id="rect3"
     style="opacity:1;fill:#d658b3;fill-opacity:1;stroke-width:1.33795;stroke-opacity:0"
     d="M 17.353745,20.624472 V 33.941448 H 7.870328 C 7.3439319,33.942098 6.9486624,33.541121 6.9474974,33.014726 V 20.659628 c 40.0791606,0 -38.0168644,-0.03796 10.4062476,-0.03516 z"
     sodipodi:nodetypes="ccsscc" /><path
     id="path4"
     style="opacity:1;fill:#d658b3;fill-opacity:1;stroke-width:1.33795;stroke-opacity:0"
     d="m 24.238025,20.624472 v 13.316976 h 9.483417 c 0.526396,6.5e-4 0.921665,-0.400327 0.92283,-0.926722 V 20.659628 c -40.0791603,0 38.016865,-0.03796 -10.406247,-0.03516 z"
     sodipodi:nodetypes="ccsscc" /></svg>
